<svg xmlns="http://www.w3.org/2000/svg" viewBox="0 0 256.66 317.22"><defs><style>.cls-1{fill:#1d1d1b;}.cls-2{fill:#e30613;}.cls-3{fill:#fff;}</style></defs><title>Fichier 2</title><g id="Calque_2" data-name="Calque 2"><g id="Calque_1-2" data-name="Calque 1"><path class="cls-1" d="M18.31,299.32q.95-17.42,1.42-32.53t.47-22.62c.71,0,1.31,0,1.8,0s1.08,0,1.76,0L22.67,270H60.21L61,249.7c.06-1.13.08-3,.08-5.53.71,0,1.31,0,1.8,0s1.08,0,1.76,0q-1.53,25.05-2.14,55.15c-.66,0-1.25,0-1.75,0s-1.14,0-1.8,0q1-14.06,1.2-26.87H22.59l-.65,19.84-.08,7c-.7,0-1.29,0-1.77,0s-1.11,0-1.78,0"/><path class="cls-1" d="M94.07,257.66a25.26,25.26,0,0,1,7.27,1,15.35,15.35,0,0,1,6.2,3.58,16,16,0,0,1,4.11,6.61,26.27,26.27,0,0,1,1.41,8.64,30.16,30.16,0,0,1-1.49,9.46,21,21,0,0,1-4.25,7.57,15.1,15.1,0,0,1-6.44,4.31,25.09,25.09,0,0,1-13.58.58,16.7,16.7,0,0,1-5.25-2.24,16.25,16.25,0,0,1-4.29-4.08A18.11,18.11,0,0,1,75,287.2a26.42,26.42,0,0,1-1-7.15,28.77,28.77,0,0,1,2.42-11.9,16.15,16.15,0,0,1,7.25-7.94,21.89,21.89,0,0,1,10.37-2.55M94,259.93a17.78,17.78,0,0,0-8.93,2.34A13.85,13.85,0,0,0,79,269.41,27.73,27.73,0,0,0,77.06,280a25.22,25.22,0,0,0,1.11,7.58,14.23,14.23,0,0,0,3.58,6,13.63,13.63,0,0,0,5.31,3.39,18.94,18.94,0,0,0,6,.95,19.23,19.23,0,0,0,6.75-1.17,13.64,13.64,0,0,0,5.55-3.92A17.17,17.17,0,0,0,108.9,286a31.11,31.11,0,0,0,1.13-8.47,26.78,26.78,0,0,0-1.11-7.82,13,13,0,0,0-3.46-5.85,13.36,13.36,0,0,0-5.33-3.09,21.5,21.5,0,0,0-6.14-.88"/><path class="cls-1" d="M121.1,317.22l.48-8.15,1.27-36.59.27-12.27a81.17,81.17,0,0,1,9.21-2,53.52,53.52,0,0,1,7.66-.57,24.09,24.09,0,0,1,10.21,2,14,14,0,0,1,6.7,6.85,24.66,24.66,0,0,1,2.39,11,28.23,28.23,0,0,1-2.53,12,17.52,17.52,0,0,1-6.83,8,18.31,18.31,0,0,1-9.6,2.57,21.54,21.54,0,0,1-4.69-.52,16.33,16.33,0,0,1-4.23-1.6,11.94,11.94,0,0,1-3.27-2.63,27.17,27.17,0,0,1-3.14-4.87l-.62,21.39v1.37c0,.91,0,2.23,0,4-.7,0-1.26,0-1.66,0s-1,0-1.66,0m5.17-54.51c-.22,2.29-.42,5.57-.59,9.82s-.27,7.07-.27,8.45a27.41,27.41,0,0,0,.73,6.52,12.72,12.72,0,0,0,2.91,5.5,14.27,14.27,0,0,0,5.16,3.74,15.87,15.87,0,0,0,6.18,1.25,14.26,14.26,0,0,0,8.21-2.47,15.75,15.75,0,0,0,5.65-7.29,27.13,27.13,0,0,0,2-10.53,21.88,21.88,0,0,0-2.06-9.85,13.19,13.19,0,0,0-5.6-6.05,16.9,16.9,0,0,0-8-1.87,41.12,41.12,0,0,0-14.29,2.78"/><path class="cls-1" d="M168.22,299.32q1.84-33.7,2.18-55.15l1.65,0,1.66,0-1,19.67-1.16,35.48-1.66,0-1.65,0"/><path class="cls-1" d="M185.91,262.79a28.32,28.32,0,0,0,.45-3.15,58.21,58.21,0,0,1,7.15-1.55,43.19,43.19,0,0,1,6.14-.43,33.49,33.49,0,0,1,6.69.63,12.48,12.48,0,0,1,5,2.1,7,7,0,0,1,2.59,3.37,12.55,12.55,0,0,1,.62,3.88c0,1.35,0,3.05-.14,5.12s-.22,4.27-.38,6.64-.31,5.33-.44,8.87-.2,6.1-.2,7.66v3.39c-.71,0-1.27,0-1.7,0s-1,0-1.7,0c.37-4.12.64-7.46.78-10s.27-5.31.37-8.26.22-5.71.38-8.27q-1.24,1.05-1.92,1.56a10.48,10.48,0,0,1-1.45.91c-.53.26-1.16.54-1.9.82s-1.42.53-2,.73-2.12.62-4.51,1.27-4.09,1.13-5.11,1.45a35.5,35.5,0,0,0-5.37,2.14,14.94,14.94,0,0,0-3.44,2.42,7.64,7.64,0,0,0-1.77,2.46,8.16,8.16,0,0,0-.65,3.27,7,7,0,0,0,1.57,4.56,8.41,8.41,0,0,0,4,2.72,18.65,18.65,0,0,0,5.8.79,29,29,0,0,0,3.28-.18c1.05-.13,2-.29,3-.49s2.26-.59,4-1.15c-.25,1-.45,2.05-.61,3.07a52.86,52.86,0,0,1-5.31.83c-1.36.12-2.65.18-3.86.18a35.89,35.89,0,0,1-6.27-.52,10.71,10.71,0,0,1-4.8-2.06,9.73,9.73,0,0,1-2.87-3.55,10,10,0,0,1-.93-4.24,9.93,9.93,0,0,1,.56-3.29,10.55,10.55,0,0,1,1.74-3.05,11.17,11.17,0,0,1,2.58-2.26,20.83,20.83,0,0,1,4.2-2.18q2.67-1.05,5.74-1.93c.57-.17,2.79-.74,6.66-1.74a34.17,34.17,0,0,0,5-1.71,8.55,8.55,0,0,0,3.63-2.87,6.44,6.44,0,0,0,1.3-3.73,6.15,6.15,0,0,0-.61-2.65A6.46,6.46,0,0,0,209,262a9.52,9.52,0,0,0-3.86-1.58,25.18,25.18,0,0,0-4.84-.44,37.05,37.05,0,0,0-5.53.38,34.8,34.8,0,0,0-4.36.89,46.51,46.51,0,0,0-4.49,1.59"/><path class="cls-2" d="M111.81,309.07h-94v1.24h93.81a5.48,5.48,0,0,1,.16-1.24"/><path class="cls-2" d="M214.16,308.8H130v.89h84a3.13,3.13,0,0,1,.15-.89"/><path class="cls-3" d="M38.39,83.55s15.77,24.67,0,23.46c0,0,23.86,27.1,2,29.53,0,0,41.66,19.82,3.64,28.31L27.94,167.6C44,189,60.43,188.76,27.22,212.41,95.07,199,141.61,125.34,130.39,58c-2.9-13.91,3.15-21,13.08-24.16a25.93,25.93,0,0,1,11.32-3.05c0-.35-.1-.74-.16-1.11a3.75,3.75,0,0,1,.44-1.92,3.79,3.79,0,0,1,.47-1,5.57,5.57,0,0,1,4-5.53c-1.25-.46-2.49-.93-3.73-1.44a104.74,104.74,0,0,1-12.47-6.72l-1.59-.4C127,9,114.29,23.41,118.3,37.73,144.23,160.24,82.47,138.51,47.84,80,46.75,84.17,43.91,86,38.39,83.55Z"/><path d="M26.6,0h0c-15.81,14.6-9,28.69-1.35,49.19,13,32.13-8.49,14.09-20.29-7.33C-3,59.76,5,69.48,19.77,82.26,44.45,105.16,19.55,99,0,85.45c.44.29,0,5.2,0,6A49.44,49.44,0,0,0,.49,97a23.59,23.59,0,0,0,3.16,9.16c4.75,7.46,13.59,8.14,21.27,10.77,2.75.94,13.81,5.69,6.45,8.38S14.5,126.75,7,125.56c3.51,15.72,9.31,23.7,27.08,22.73,27.08,2.07,8,10.72-11.11,11.89a76.46,76.46,0,0,0,5,7.42l16.11-2.75c38-8.49-3.64-28.31-3.64-28.31,21.84-2.43-2-29.53-2-29.53,15.77,1.21,0-23.46,0-23.46,5.52,2.4,8.36.62,9.45-3.55C34.15,56.87,24.7,28,26.6,0Z"/><path class="cls-2" d="M211,35.26a10.82,10.82,0,0,0-2.54-.9c-5.25-1.16-29.42-6.86-49-13.11a14.14,14.14,0,0,0-4,1.42l-.07,0a11.46,11.46,0,0,1-2.55,1,43.06,43.06,0,0,1-6.3.91,30,30,0,0,0-4.36,1,34.39,34.39,0,0,1,10.09,5.48c21.05.59,49.76,5.13,55.52,6.15a8.19,8.19,0,0,0,2.66,0c1.42-.21,1.6-.56,1.48-.82.3-.09.62-.37-1-1.2"/><path class="cls-3" d="M179.45,151c4.92-8.63,12.07-3.64,23.94-2.56,0,0-15.74-13-11-20.63,1.88-3,3.91-9.91,25.88-10.25,0,0-17.73-4.11-8.09-14.56,7.22-7.82,22.66-11.87,22.66-11.87s-13.89.53-13-9.57c-33.45,32.07-71.32,53.81-71.55,50.12-.25-4.27-3.61-23.26-4.7-27.16-2.74,36.55-7.49,72.21-30.38,102.78,22.09-.2,50.75-11.5,76.64-29.83C183.79,170.66,175,158.81,179.45,151Z"/><path d="M201,160.06c11.2,7.12,18-9.67,25.61-16.13-20.49-6.53-39.37-21.67-9.41-16.13,17.45,5.72,24.7-.64,30.21-16.4-23,2.06-45.38-4.2-13.76-12.38,15.28-3,24.36-7,22.91-23.28-18.15,9-34.85,10.41-12-8.45,9.93-6.59,13.13-12.62,7.85-23.6-8.93,13.5-20.4,26.36-32.43,37.89-.93,10.1,13,9.57,13,9.57s-15.44,4-22.66,11.87c-9.64,10.45,8.09,14.56,8.09,14.56-22,.34-24,7.21-25.88,10.25-4.75,7.62,11,20.63,11,20.63-11.87-1.08-19-6.07-23.94,2.56-4.44,7.79,4.34,19.64,10.45,26.47q4.38-3.11,8.64-6.46C185.9,161.88,179.5,151.49,201,160.06Z"/></g></g></svg>