<svg xmlns="http://www.w3.org/2000/svg" viewBox="0 0 406.46 131.5"><defs><style>.cls-1{fill:#1d1d1b;}.cls-2{fill:#e30613;}.cls-3{fill:#fff;}</style></defs><title>Fichier 1</title><g id="Calque_2" data-name="Calque 2"><g id="Calque_1-2" data-name="Calque 1"><path class="cls-1" d="M210.17,98.79q.95-17.42,1.42-32.53t.47-22.62c.71,0,1.31,0,1.8,0s1.08,0,1.76,0l-1.09,25.82h37.54l.76-20.29c.06-1.13.08-3,.08-5.53.71,0,1.31,0,1.8,0s1.08,0,1.76,0q-1.53,25-2.14,55.15c-.66,0-1.25,0-1.76,0s-1.13,0-1.8,0q1-14.06,1.21-26.87H214.44l-.64,19.84-.08,7c-.7,0-1.29,0-1.78,0s-1.1,0-1.77,0"/><path class="cls-1" d="M285.93,57.13a25.26,25.26,0,0,1,7.27,1,15.35,15.35,0,0,1,6.2,3.58,16.06,16.06,0,0,1,4.11,6.6A26.32,26.32,0,0,1,304.92,77a29.88,29.88,0,0,1-1.5,9.46A20.91,20.91,0,0,1,299.18,94a15.1,15.1,0,0,1-6.44,4.31,25.09,25.09,0,0,1-13.58.58,16.7,16.7,0,0,1-5.25-2.24,16.25,16.25,0,0,1-4.29-4.08,18.11,18.11,0,0,1-2.78-5.94,26.42,26.42,0,0,1-.95-7.15,28.61,28.61,0,0,1,2.42-11.9,16.06,16.06,0,0,1,7.25-7.94,21.89,21.89,0,0,1,10.37-2.55m-.08,2.26a17.69,17.69,0,0,0-8.93,2.35,13.85,13.85,0,0,0-6.06,7.14,27.73,27.73,0,0,0-1.94,10.54A25.22,25.22,0,0,0,270,87a14.32,14.32,0,0,0,3.57,6,13.73,13.73,0,0,0,5.32,3.39,18.94,18.94,0,0,0,6,1,19.27,19.27,0,0,0,6.75-1.17,13.64,13.64,0,0,0,5.55-3.92,17.3,17.3,0,0,0,3.54-6.74A31.13,31.13,0,0,0,301.89,77a26.76,26.76,0,0,0-1.11-7.81,13,13,0,0,0-3.46-5.85A13.13,13.13,0,0,0,292,60.28a21.51,21.51,0,0,0-6.14-.89"/><path class="cls-1" d="M313,116.69l.48-8.15L314.71,72,315,59.68a79,79,0,0,1,9.21-2,53.52,53.52,0,0,1,7.66-.57,24.09,24.09,0,0,1,10.21,2,14,14,0,0,1,6.7,6.85,24.66,24.66,0,0,1,2.39,11,28.26,28.26,0,0,1-2.53,12,17.57,17.57,0,0,1-6.83,8,18.31,18.31,0,0,1-9.6,2.57,21,21,0,0,1-4.69-.53,16,16,0,0,1-4.23-1.59A12.13,12.13,0,0,1,320,94.85,27.17,27.17,0,0,1,316.86,90l-.62,21.39v1.37c0,.91,0,2.23,0,4-.7,0-1.26,0-1.66,0s-1,0-1.66,0m5.17-54.51q-.33,3.43-.59,9.82c-.18,4.26-.27,7.07-.27,8.45A27.47,27.47,0,0,0,318,87a12.72,12.72,0,0,0,2.91,5.5,14.12,14.12,0,0,0,5.16,3.73,15.7,15.7,0,0,0,6.18,1.26A14.26,14.26,0,0,0,340.46,95a15.75,15.75,0,0,0,5.65-7.29,27.13,27.13,0,0,0,2-10.53,21.92,21.92,0,0,0-2.06-9.86,13.21,13.21,0,0,0-5.6-6,16.9,16.9,0,0,0-8-1.88,41.14,41.14,0,0,0-14.29,2.79"/><path class="cls-1" d="M360.08,98.79q1.85-33.71,2.17-55.15l1.66,0,1.66,0-1,19.67-1.16,35.48c-.7,0-1.25,0-1.66,0s-1,0-1.65,0"/><path class="cls-1" d="M377.77,62.26a28.32,28.32,0,0,0,.45-3.15,58.21,58.21,0,0,1,7.15-1.55,43.19,43.19,0,0,1,6.14-.43,33.49,33.49,0,0,1,6.69.63,12.48,12.48,0,0,1,5.05,2.1,7,7,0,0,1,2.59,3.37,12.55,12.55,0,0,1,.62,3.88c0,1.35,0,3-.14,5.11s-.22,4.28-.38,6.65-.31,5.33-.44,8.87-.2,6.09-.2,7.66v3.39c-.71,0-1.27,0-1.7,0s-1,0-1.7,0c.37-4.12.64-7.46.78-10s.27-5.31.37-8.26.22-5.71.38-8.27q-1.24,1-1.92,1.56a9.57,9.57,0,0,1-1.45.9,19,19,0,0,1-1.9.83c-.74.29-1.42.53-2,.73s-2.12.62-4.51,1.27-4.09,1.13-5.11,1.45a34.47,34.47,0,0,0-5.37,2.14,14.94,14.94,0,0,0-3.44,2.42A7.64,7.64,0,0,0,375.92,86a8.16,8.16,0,0,0-.65,3.27,7,7,0,0,0,1.57,4.56,8.41,8.41,0,0,0,4,2.72,19,19,0,0,0,5.8.79,26.79,26.79,0,0,0,3.28-.19q1.58-.18,3-.48c.93-.2,2.26-.59,4-1.15-.25,1-.45,2-.61,3.07a52.86,52.86,0,0,1-5.31.83c-1.36.12-2.65.18-3.86.18a34.91,34.91,0,0,1-6.27-.53,10.7,10.7,0,0,1-4.8-2,9.67,9.67,0,0,1-2.87-3.56,10,10,0,0,1-.37-7.52,10.42,10.42,0,0,1,1.74-3,10.94,10.94,0,0,1,2.58-2.26,20.83,20.83,0,0,1,4.2-2.18c1.78-.7,3.69-1.34,5.74-1.94.57-.16,2.79-.73,6.66-1.73a33,33,0,0,0,5-1.72,8.45,8.45,0,0,0,3.63-2.86,6.44,6.44,0,0,0,1.3-3.73,6.15,6.15,0,0,0-.61-2.65,6.56,6.56,0,0,0-2.16-2.41A9.65,9.65,0,0,0,397,59.84a25.17,25.17,0,0,0-4.84-.45,37,37,0,0,0-5.53.39,33.09,33.09,0,0,0-4.36.89,46.51,46.51,0,0,0-4.49,1.59"/><path class="cls-2" d="M303.67,108.54h-94v1.24h93.81a5.41,5.41,0,0,1,.16-1.24"/><path class="cls-2" d="M406,108.27H321.88v.88h84a3.13,3.13,0,0,1,.15-.88"/><path class="cls-3" d="M23.77,51.73s9.76,15.27,0,14.52c0,0,14.77,16.78,1.25,18.28,0,0,25.79,12.27,2.25,17.53l-10,1.7c10,13.23,20.12,13.1-.44,27.74,42-8.33,70.82-53.9,63.87-95.58-1.79-8.61,2-13,8.1-15a16,16,0,0,1,7-1.88c0-.23-.07-.46-.1-.69A2.32,2.32,0,0,1,96,17.2a2.78,2.78,0,0,1,.29-.6,3.47,3.47,0,0,1,2.5-3.43c-.78-.28-1.55-.57-2.31-.89a65.22,65.22,0,0,1-7.72-4.16l-1-.24c-9.15-2.34-17,6.61-14.54,15.48C89.29,99.2,51.05,85.75,29.62,49.53,28.94,52.11,27.18,53.21,23.77,51.73Z"/><path d="M16.47,0h0c-9.79,9-5.58,17.76-.84,30.45,8.07,19.89-5.25,8.72-12.56-4.53-4.92,11.08,0,17.09,9.17,25C27.52,65.11,12.1,61.3,0,52.9c.27.18,0,3.22,0,3.69A30.69,30.69,0,0,0,.3,60a14.58,14.58,0,0,0,2,5.67c2.94,4.62,8.41,5,13.17,6.67,1.7.58,8.55,3.52,4,5.19s-10.44.9-15.08.16C6.52,87.47,10.1,92.41,21.1,91.81c16.77,1.28,5,6.63-6.87,7.36a49.41,49.41,0,0,0,3.06,4.59l10-1.7C50.81,96.8,25,84.53,25,84.53c13.52-1.5-1.25-18.28-1.25-18.28,9.76.75,0-14.52,0-14.52,3.41,1.48,5.17.38,5.85-2.2C21.14,35.21,15.29,17.33,16.47,0Z"/><path class="cls-2" d="M130.64,21.83a6.33,6.33,0,0,0-1.58-.56c-3.24-.72-18.2-4.24-30.31-8.11a8.84,8.84,0,0,0-2.44.87l0,0a7.77,7.77,0,0,1-1.58.63,25.8,25.8,0,0,1-3.9.56,19.3,19.3,0,0,0-2.7.61,21.18,21.18,0,0,1,6.25,3.39c13,.36,30.8,3.17,34.37,3.8a5,5,0,0,0,1.64,0c.89-.13,1-.35.92-.51.19-.06.39-.23-.63-.74"/><path class="cls-3" d="M111.1,93.49c3-5.34,7.47-2.25,14.81-1.58,0,0-9.74-8.06-6.8-12.77,1.17-1.88,2.42-6.14,16-6.35,0,0-11-2.54-5-9,4.46-4.84,14-7.35,14-7.35s-8.6.33-8-5.93C115.42,70.36,92,83.82,91.84,81.53c-.16-2.64-2.24-14.4-2.92-16.81-1.69,22.63-4.63,44.71-18.8,63.63,13.68-.13,31.42-7.12,47.44-18.47C113.78,105.66,108.35,98.32,111.1,93.49Z"/><path d="M124.4,99.09c6.94,4.41,11.15-6,15.86-10-12.68-4-24.37-13.42-5.83-10,10.81,3.54,15.29-.4,18.71-10.15-14.21,1.27-28.1-2.61-8.52-7.67,9.46-1.88,15.08-4.3,14.18-14.41-11.24,5.6-21.57,6.45-7.45-5.23,6.15-4.08,8.13-7.81,4.86-14.61A141.5,141.5,0,0,1,136.13,50.5c-.58,6.26,8,5.93,8,5.93s-9.56,2.51-14,7.35c-6,6.47,5,9,5,9-13.61.21-14.86,4.47-16,6.35-2.94,4.71,6.8,12.77,6.8,12.77-7.34-.67-11.77-3.76-14.81,1.58-2.75,4.83,2.68,12.17,6.46,16.39,1.81-1.28,3.6-2.61,5.35-4C115.09,100.22,111.13,93.78,124.4,99.09Z"/></g></g></svg>